<svg width="185" height="185" viewBox="0 0 185 185" fill="none" xmlns="http://www.w3.org/2000/svg">
<g filter="url(#filter0_f_31_9)">
<g filter="url(#filter1_f_31_9)">
<path d="M130.379 40.1531L128.419 49.2426L137.095 45.741C147.021 76.1414 113.632 86.9642 95.6966 88.5756C92.6797 51.9874 113.013 34.6656 130.379 40.1531Z" fill="#FEB2B2" fill-opacity="0.57"/>
</g>
<g filter="url(#filter2_f_31_9)">
<path d="M155.723 103.145L146.871 105.853L154.127 111.692C132.522 135.066 106.902 111.305 96.792 96.5033C127.13 76.1305 152.061 85.3942 155.723 103.145Z" fill="#FEB2B2" fill-opacity="0.57"/>
</g>
<g filter="url(#filter3_f_31_9)">
<path d="M63.2178 33.7193L69.9906 40.0297L71.4168 30.8252C102.464 37.8397 94.707 71.9103 86.9478 88.0688C54.1304 71.9912 49.68 45.7705 63.2178 33.7193Z" fill="#FEB2B2" fill-opacity="0.57"/>
</g>
<g filter="url(#filter4_f_31_9)">
<path d="M98.1945 158.845L93.4307 150.907L89.5149 159.359C61.6183 144.033 78.4935 113.435 90.4182 100.053C117.51 124.578 114.537 151.007 98.1945 158.845Z" fill="#FEB2B2" fill-opacity="0.57"/>
</g>
<g filter="url(#filter5_f_31_9)">
<path d="M28.7601 112.045L35.6896 105.907L26.6638 103.606C36.617 73.3731 69.789 84.3544 85.1309 93.6241C65.9868 124.753 39.4606 126.673 28.7601 112.045Z" fill="#FEB2B2" fill-opacity="0.57"/>
</g>
</g>
<defs>
<filter id="filter0_f_31_9" x="19.4638" y="23.6252" width="143.459" height="142.933" filterUnits="userSpaceOnUse" color-interpolation-filters="sRGB">
<feFlood flood-opacity="0" result="BackgroundImageFix"/>
<feBlend mode="normal" in="SourceGraphic" in2="BackgroundImageFix" result="shape"/>
<feGaussianBlur stdDeviation="3.6" result="effect1_foregroundBlur_31_9"/>
</filter>
<filter id="filter1_f_31_9" x="89.0967" y="32.8567" width="56.1052" height="62.0187" filterUnits="userSpaceOnUse" color-interpolation-filters="sRGB">
<feFlood flood-opacity="0" result="BackgroundImageFix"/>
<feBlend mode="normal" in="SourceGraphic" in2="BackgroundImageFix" result="shape"/>
<feGaussianBlur stdDeviation="3.15" result="effect1_foregroundBlur_31_9"/>
</filter>
<filter id="filter2_f_31_9" x="90.492" y="78.6277" width="71.531" height="49.1894" filterUnits="userSpaceOnUse" color-interpolation-filters="sRGB">
<feFlood flood-opacity="0" result="BackgroundImageFix"/>
<feBlend mode="normal" in="SourceGraphic" in2="BackgroundImageFix" result="shape"/>
<feGaussianBlur stdDeviation="3.15" result="effect1_foregroundBlur_31_9"/>
</filter>
<filter id="filter3_f_31_9" x="49.7551" y="24.5252" width="50.4307" height="69.8437" filterUnits="userSpaceOnUse" color-interpolation-filters="sRGB">
<feFlood flood-opacity="0" result="BackgroundImageFix"/>
<feBlend mode="normal" in="SourceGraphic" in2="BackgroundImageFix" result="shape"/>
<feGaussianBlur stdDeviation="3.15" result="effect1_foregroundBlur_31_9"/>
</filter>
<filter id="filter4_f_31_9" x="68.0472" y="93.7525" width="48.8972" height="71.9062" filterUnits="userSpaceOnUse" color-interpolation-filters="sRGB">
<feFlood flood-opacity="0" result="BackgroundImageFix"/>
<feBlend mode="normal" in="SourceGraphic" in2="BackgroundImageFix" result="shape"/>
<feGaussianBlur stdDeviation="3.15" result="effect1_foregroundBlur_31_9"/>
</filter>
<filter id="filter5_f_31_9" x="20.3638" y="77.4993" width="71.0671" height="49.6601" filterUnits="userSpaceOnUse" color-interpolation-filters="sRGB">
<feFlood flood-opacity="0" result="BackgroundImageFix"/>
<feBlend mode="normal" in="SourceGraphic" in2="BackgroundImageFix" result="shape"/>
<feGaussianBlur stdDeviation="3.15" result="effect1_foregroundBlur_31_9"/>
</filter>
</defs>
</svg>
